<svg width="110" height="23" viewBox="0 0 110 23" fill="none" xmlns="http://www.w3.org/2000/svg">
<path d="M6.024 18H2.712V8.04H0.12V5.184H2.712V4.488C2.712 3.208 3.048 2.224 3.72 1.536C4.408 0.847999 5.416 0.503999 6.744 0.503999C7.16 0.503999 7.536 0.543999 7.872 0.623999C8.224 0.687999 8.536 0.775999 8.808 0.887999V3.528C8.632 3.448 8.432 3.392 8.208 3.36C7.984 3.328 7.76 3.312 7.536 3.312C7.088 3.312 6.72 3.408 6.432 3.6C6.16 3.792 6.024 4.112 6.024 4.56V5.184H9.36V8.04H6.024V18ZM15.8104 18.216C14.5304 18.216 13.4024 17.944 12.4264 17.4C11.4664 16.84 10.7224 16.056 10.1944 15.048C9.66638 14.04 9.40238 12.872 9.40238 11.544C9.40238 10.264 9.67438 9.128 10.2184 8.136C10.7624 7.144 11.5144 6.368 12.4744 5.808C13.4344 5.232 14.5304 4.944 15.7624 4.944C16.7704 4.944 17.6824 5.136 18.4984 5.52C19.3304 5.888 20.0264 6.416 20.5864 7.104C21.1464 7.792 21.5464 8.592 21.7864 9.504C22.0264 10.4 22.0664 11.368 21.9064 12.408H11.3704V10.296H18.3784C18.3464 9.4 18.0824 8.696 17.5864 8.184C17.1064 7.656 16.4744 7.392 15.6904 7.392C15.0664 7.392 14.5384 7.552 14.1064 7.872C13.6744 8.192 13.3384 8.664 13.0984 9.288C12.8744 9.896 12.7624 10.648 12.7624 11.544C12.7624 12.424 12.8744 13.168 13.0984 13.776C13.3224 14.384 13.6584 14.848 14.1064 15.168C14.5544 15.488 15.0984 15.648 15.7384 15.648C16.4744 15.648 17.0824 15.472 17.5624 15.12C18.0424 14.768 18.3784 14.28 18.5704 13.656H21.8824C21.5144 15.096 20.8024 16.216 19.7464 17.016C18.6904 17.816 17.3784 18.216 15.8104 18.216ZM27.0208 18H23.6608V0.767999H27.0208V18ZM32.8684 18H29.5324V5.184H32.8684V18ZM33.3964 2.208C33.3964 2.768 33.1884 3.24 32.7724 3.624C32.3724 3.992 31.8364 4.176 31.1644 4.176C30.5084 4.176 29.9724 3.992 29.5564 3.624C29.1564 3.24 28.9564 2.768 28.9564 2.208C28.9564 1.616 29.1564 1.136 29.5564 0.767999C29.9724 0.383999 30.5084 0.191999 31.1644 0.191999C31.8364 0.191999 32.3724 0.383999 32.7724 0.767999C33.1884 1.136 33.3964 1.616 33.3964 2.208ZM48.1491 11.592C48.1491 12.856 47.9091 13.992 47.4291 15C46.9651 15.992 46.3091 16.784 45.4611 17.376C44.6291 17.952 43.6291 18.24 42.4611 18.24C41.7091 18.24 41.0131 18.08 40.3731 17.76C39.7331 17.44 39.1731 16.968 38.6931 16.344V22.632H35.3571V5.184H38.4291V7.056C38.9251 6.368 39.5171 5.848 40.2051 5.496C40.8931 5.128 41.6451 4.944 42.4611 4.944C43.6131 4.944 44.6131 5.24 45.4611 5.832C46.3091 6.408 46.9651 7.2 47.4291 8.208C47.9091 9.2 48.1491 10.328 48.1491 11.592ZM44.7171 11.592C44.7171 10.392 44.4211 9.48 43.8291 8.856C43.2371 8.216 42.5331 7.896 41.7171 7.896C41.1891 7.896 40.6931 8.04 40.2291 8.328C39.7651 8.616 39.3971 9.032 39.1251 9.576C38.8531 10.104 38.7171 10.776 38.7171 11.592C38.7171 12.392 38.8531 13.072 39.1251 13.632C39.3971 14.176 39.7571 14.584 40.2051 14.856C40.6691 15.128 41.1731 15.264 41.7171 15.264C42.5331 15.264 43.2371 14.96 43.8291 14.352C44.4211 13.728 44.7171 12.808 44.7171 11.592ZM55.3747 18.216C54.0947 18.216 52.9667 17.944 51.9907 17.4C51.0307 16.84 50.2867 16.056 49.7587 15.048C49.2307 14.04 48.9667 12.872 48.9667 11.544C48.9667 10.264 49.2387 9.128 49.7827 8.136C50.3267 7.144 51.0787 6.368 52.0387 5.808C52.9987 5.232 54.0947 4.944 55.3267 4.944C56.3347 4.944 57.2467 5.136 58.0627 5.52C58.8947 5.888 59.5907 6.416 60.1507 7.104C60.7107 7.792 61.1107 8.592 61.3507 9.504C61.5907 10.4 61.6307 11.368 61.4707 12.408H50.9347V10.296H57.9427C57.9107 9.4 57.6467 8.696 57.1507 8.184C56.6707 7.656 56.0387 7.392 55.2547 7.392C54.6307 7.392 54.1027 7.552 53.6707 7.872C53.2387 8.192 52.9027 8.664 52.6627 9.288C52.4387 9.896 52.3267 10.648 52.3267 11.544C52.3267 12.424 52.4387 13.168 52.6627 13.776C52.8867 14.384 53.2227 14.848 53.6707 15.168C54.1187 15.488 54.6627 15.648 55.3027 15.648C56.0387 15.648 56.6467 15.472 57.1267 15.12C57.6067 14.768 57.9427 14.28 58.1347 13.656H61.4467C61.0787 15.096 60.3667 16.216 59.3107 17.016C58.2547 17.816 56.9427 18.216 55.3747 18.216ZM66.5852 18H63.2252V0.767999H66.5852V18ZM74.6647 18.216C73.3847 18.216 72.2567 17.944 71.2807 17.4C70.3207 16.84 69.5767 16.056 69.0487 15.048C68.5207 14.04 68.2567 12.872 68.2567 11.544C68.2567 10.264 68.5287 9.128 69.0727 8.136C69.6167 7.144 70.3687 6.368 71.3287 5.808C72.2887 5.232 73.3847 4.944 74.6168 4.944C75.6247 4.944 76.5367 5.136 77.3527 5.52C78.1848 5.888 78.8808 6.416 79.4408 7.104C80.0007 7.792 80.4007 8.592 80.6408 9.504C80.8808 10.4 80.9208 11.368 80.7608 12.408H70.2247V10.296H77.2327C77.2007 9.4 76.9367 8.696 76.4408 8.184C75.9608 7.656 75.3287 7.392 74.5447 7.392C73.9207 7.392 73.3927 7.552 72.9607 7.872C72.5287 8.192 72.1927 8.664 71.9527 9.288C71.7287 9.896 71.6167 10.648 71.6167 11.544C71.6167 12.424 71.7287 13.168 71.9527 13.776C72.1767 14.384 72.5127 14.848 72.9607 15.168C73.4087 15.488 73.9527 15.648 74.5927 15.648C75.3287 15.648 75.9367 15.472 76.4167 15.12C76.8967 14.768 77.2327 14.28 77.4247 13.656H80.7368C80.3688 15.096 79.6568 16.216 78.6008 17.016C77.5447 17.816 76.2327 18.216 74.6647 18.216ZM85.8512 18H82.5152V5.184H85.8512V18ZM86.3792 2.208C86.3792 2.768 86.1712 3.24 85.7552 3.624C85.3552 3.992 84.8192 4.176 84.1472 4.176C83.4912 4.176 82.9552 3.992 82.5392 3.624C82.1392 3.24 81.9392 2.768 81.9392 2.208C81.9392 1.616 82.1392 1.136 82.5392 0.767999C82.9552 0.383999 83.4912 0.191999 84.1472 0.191999C84.8192 0.191999 85.3552 0.383999 85.7552 0.767999C86.1712 1.136 86.3792 1.616 86.3792 2.208ZM96.3079 14.76V17.664C95.9079 17.872 95.4999 18.016 95.0839 18.096C94.6839 18.192 94.2359 18.24 93.7399 18.24C92.8759 18.24 92.1159 18.08 91.4599 17.76C90.8199 17.424 90.3239 16.928 89.9719 16.272C89.6199 15.6 89.4439 14.792 89.4439 13.848V8.04H86.8519V5.184H89.4439V1.392H92.7559V5.184H96.4279V8.04H92.7559V13.08C92.7559 13.816 92.9159 14.352 93.2359 14.688C93.5719 15.008 94.0359 15.168 94.6279 15.168C94.9479 15.168 95.2519 15.136 95.5399 15.072C95.8279 14.992 96.0839 14.888 96.3079 14.76ZM103.272 18.216C101.992 18.216 100.864 17.944 99.8876 17.4C98.9276 16.84 98.1836 16.056 97.6556 15.048C97.1276 14.04 96.8636 12.872 96.8636 11.544C96.8636 10.264 97.1356 9.128 97.6796 8.136C98.2236 7.144 98.9756 6.368 99.9356 5.808C100.896 5.232 101.992 4.944 103.224 4.944C104.232 4.944 105.144 5.136 105.96 5.52C106.792 5.888 107.488 6.416 108.048 7.104C108.608 7.792 109.008 8.592 109.248 9.504C109.488 10.4 109.528 11.368 109.368 12.408H98.8316V10.296H105.84C105.808 9.4 105.544 8.696 105.048 8.184C104.568 7.656 103.936 7.392 103.152 7.392C102.528 7.392 102 7.552 101.568 7.872C101.136 8.192 100.8 8.664 100.56 9.288C100.336 9.896 100.224 10.648 100.224 11.544C100.224 12.424 100.336 13.168 100.56 13.776C100.784 14.384 101.12 14.848 101.568 15.168C102.016 15.488 102.56 15.648 103.2 15.648C103.936 15.648 104.544 15.472 105.024 15.12C105.504 14.768 105.84 14.28 106.032 13.656H109.344C108.976 15.096 108.264 16.216 107.208 17.016C106.152 17.816 104.84 18.216 103.272 18.216Z" fill="#94A3B8"/>
</svg>
