<svg width="128" height="110" viewBox="0 0 128 110" fill="none" xmlns="http://www.w3.org/2000/svg">
<g filter="url(#filter0_bd_714_911)">
<path d="M0 8.47433C0 3.95441 3.35786 0.290283 7.5 0.290283H112.5C116.642 0.290283 120 3.95441 120 8.47433V93.0428C120 97.5628 116.642 101.227 112.5 101.227H7.5C3.35786 101.227 0 97.5628 0 93.0428V8.47433Z" fill="#E5E7EB" fill-opacity="0.5" shape-rendering="crispEdges"/>
<path d="M7.5 1.29028H112.5C116.009 1.29028 119 4.42274 119 8.47433V93.0428C119 97.0944 116.009 100.227 112.5 100.227H7.5C3.99052 100.227 1 97.0944 1 93.0428V8.47433C1 4.42274 3.99052 1.29028 7.5 1.29028Z" stroke="#E5E7EB" stroke-width="2" shape-rendering="crispEdges"/>
</g>
<path d="M11.1108 16.6579C11.1108 15.1513 12.2301 13.9299 13.6108 13.9299H106.389C107.769 13.9299 108.889 15.1513 108.889 16.6579V16.6579C108.889 18.1646 107.769 19.386 106.389 19.386H13.6108C12.2301 19.386 11.1108 18.1646 11.1108 16.6579V16.6579Z" fill="white"/>
<path d="M11.1108 30.2986C11.1108 28.7919 12.2301 27.5706 13.6108 27.5706H43.6108C44.9915 27.5706 46.1108 28.7919 46.1108 30.2986V30.2986C46.1108 31.8052 44.9915 33.0266 43.6108 33.0266H13.6108C12.2301 33.0266 11.1108 31.8052 11.1108 30.2986V30.2986Z" fill="#F9C746"/>
<path d="M50.5552 30.2986C50.5552 28.7919 51.6745 27.5706 53.0552 27.5706H64.7218C66.1026 27.5706 67.2218 28.7919 67.2218 30.2986V30.2986C67.2218 31.8052 66.1025 33.0266 64.7218 33.0266H53.0552C51.6745 33.0266 50.5552 31.8052 50.5552 30.2986V30.2986Z" fill="#84EBE5"/>
<path d="M11.1108 84.8589C11.1108 83.3522 12.2301 82.1309 13.6108 82.1309H43.6108C44.9915 82.1309 46.1108 83.3522 46.1108 84.8589V84.8589C46.1108 86.3655 44.9915 87.5869 43.6108 87.5869H13.6108C12.2301 87.5869 11.1108 86.3655 11.1108 84.8589V84.8589Z" fill="white"/>
<path d="M50.5552 84.8589C50.5552 83.3522 51.6745 82.1309 53.0552 82.1309H64.7218C66.1026 82.1309 67.2218 83.3522 67.2218 84.8589V84.8589C67.2218 86.3655 66.1025 87.5869 64.7218 87.5869H53.0552C51.6745 87.5869 50.5552 86.3655 50.5552 84.8589V84.8589Z" fill="#F47D9E"/>
<path d="M31.1113 57.5786C31.1113 56.072 32.2306 54.8506 33.6113 54.8506H41.9447C43.3254 54.8506 44.4447 56.072 44.4447 57.5786V57.5786C44.4447 59.0852 43.3254 60.3066 41.9447 60.3066H33.6113C32.2306 60.3066 31.1113 59.0852 31.1113 57.5786V57.5786Z" fill="#F2C87D"/>
<path d="M49.4451 57.5786C49.4451 56.072 50.5644 54.8506 51.9451 54.8506H87.5006C88.8813 54.8506 90.0006 56.072 90.0006 57.5786V57.5786C90.0006 59.0852 88.8813 60.3066 87.5006 60.3066H51.9451C50.5644 60.3066 49.4451 59.0852 49.4451 57.5786V57.5786Z" fill="white"/>
<path d="M11.1108 57.5786C11.1108 56.072 12.2301 54.8506 13.6108 54.8506H25.2775C26.6582 54.8506 27.7775 56.072 27.7775 57.5786V57.5786C27.7775 59.0852 26.6582 60.3066 25.2775 60.3066H13.6108C12.2301 60.3066 11.1108 59.0852 11.1108 57.5786V57.5786Z" fill="#F37D9D"/>
<path d="M11.1108 43.9382C11.1108 42.4316 12.2301 41.2102 13.6108 41.2102H54.1664C55.5471 41.2102 56.6664 42.4316 56.6664 43.9382V43.9382C56.6664 45.4449 55.5471 46.6662 54.1664 46.6662H13.6108C12.2301 46.6662 11.1108 45.4449 11.1108 43.9382V43.9382Z" fill="white"/>
<path d="M60.5559 43.9382C60.5559 42.4316 61.6752 41.2102 63.0559 41.2102H81.9448C83.3255 41.2102 84.4448 42.4316 84.4448 43.9382V43.9382C84.4448 45.4449 83.3255 46.6662 81.9448 46.6662H63.0559C61.6752 46.6662 60.5559 45.4449 60.5559 43.9382V43.9382Z" fill="white"/>
<path d="M11.1108 71.2185C11.1108 69.7119 12.2301 68.4905 13.6108 68.4905H54.1664C55.5471 68.4905 56.6664 69.7119 56.6664 71.2185V71.2185C56.6664 72.7251 55.5471 73.9465 54.1664 73.9465H13.6108C12.2301 73.9465 11.1108 72.7251 11.1108 71.2185V71.2185Z" fill="#70D1E7"/>
<defs>
<filter id="filter0_bd_714_911" x="-8.8" y="-8.50972" width="137.6" height="118.537" filterUnits="userSpaceOnUse" color-interpolation-filters="sRGB">
<feFlood flood-opacity="0" result="BackgroundImageFix"/>
<feGaussianBlur in="BackgroundImageFix" stdDeviation="4.4"/>
<feComposite in2="SourceAlpha" operator="in" result="effect1_backgroundBlur_714_911"/>
<feColorMatrix in="SourceAlpha" type="matrix" values="0 0 0 0 0 0 0 0 0 0 0 0 0 0 0 0 0 0 127 0" result="hardAlpha"/>
<feOffset dx="4" dy="4"/>
<feGaussianBlur stdDeviation="1.95"/>
<feComposite in2="hardAlpha" operator="out"/>
<feColorMatrix type="matrix" values="0 0 0 0 0.660567 0 0 0 0 0.66234 0 0 0 0 0.665 0 0 0 1 0"/>
<feBlend mode="normal" in2="effect1_backgroundBlur_714_911" result="effect2_dropShadow_714_911"/>
<feBlend mode="normal" in="SourceGraphic" in2="effect2_dropShadow_714_911" result="shape"/>
</filter>
</defs>
</svg>
