<svg width="421" height="307" viewBox="0 0 421 307" fill="none" xmlns="http://www.w3.org/2000/svg">
<g filter="url(#filter0_d_713_909)">
<path d="M0.709961 13.8648C0.709961 6.3535 7.11842 0.264404 15.0237 0.264404H388.686C396.591 0.264404 403 6.35351 403 13.8648V275.135C403 282.647 396.591 288.736 388.686 288.736H15.0236C7.11842 288.736 0.709961 282.647 0.709961 275.135V13.8648Z" fill="url(#paint0_linear_713_909)" shape-rendering="crispEdges"/>
<path d="M15.0237 1.2644H388.686C396.088 1.2644 402 6.95334 402 13.8648V275.135C402 282.047 396.088 287.736 388.686 287.736H15.0236C7.62192 287.736 1.70996 282.047 1.70996 275.135V13.8648C1.70996 6.95334 7.62192 1.2644 15.0237 1.2644Z" stroke="#D1D5DB" stroke-width="2" shape-rendering="crispEdges"/>
</g>
<path fill-rule="evenodd" clip-rule="evenodd" d="M388.185 1.69602H15.482C8.42708 1.69602 2.70791 7.14416 2.70791 13.8648V275.135C2.70791 281.856 8.42708 287.304 15.482 287.304H388.185C395.24 287.304 400.96 281.856 400.96 275.135V13.8648C400.96 7.14417 395.24 1.69602 388.185 1.69602ZM15.482 0.264404C7.59708 0.264404 1.20508 6.3535 1.20508 13.8648V275.135C1.20508 282.647 7.59708 288.736 15.482 288.736H388.185C396.07 288.736 402.462 282.647 402.462 275.135V13.8648C402.462 6.35351 396.07 0.264404 388.185 0.264404H15.482Z" fill="url(#paint1_linear_713_909)"/>
<path d="M10.2231 27.1075C10.2231 19.0032 17.1198 12.4333 25.6272 12.4333H372.031C380.538 12.4333 387.435 19.0032 387.435 27.1075V27.1075C387.435 35.2117 380.538 41.7816 372.031 41.7816H25.6272C17.1198 41.7816 10.2231 35.2117 10.2231 27.1075V27.1075Z" fill="#F2D4B6"/>
<path d="M37.7609 27.2687C37.7609 29.9795 35.4534 32.177 32.607 32.177C29.7606 32.177 27.4531 29.9795 27.4531 27.2687C27.4531 24.5579 29.7606 22.3604 32.607 22.3604C35.4534 22.3604 37.7609 24.5579 37.7609 27.2687Z" fill="#FED280"/>
<path d="M55.8 27.2687C55.8 29.9795 53.4925 32.177 50.6461 32.177C47.7997 32.177 45.4922 29.9795 45.4922 27.2687C45.4922 24.5579 47.7997 22.3604 50.6461 22.3604C53.4925 22.3604 55.8 24.5579 55.8 27.2687Z" fill="#8CFEE3" fill-opacity="0.9"/>
<path d="M73.8407 27.2687C73.8407 29.9795 71.5333 32.177 68.6868 32.177C65.8404 32.177 63.533 29.9795 63.533 27.2687C63.533 24.5579 65.8404 22.3604 68.6868 22.3604C71.5333 22.3604 73.8407 24.5579 73.8407 27.2687Z" fill="#FF8DA9" fill-opacity="0.9"/>
<path fill-rule="evenodd" clip-rule="evenodd" d="M76.2526 151.731H72.0269V149.812H76.2526V151.731Z" fill="white"/>
<path fill-rule="evenodd" clip-rule="evenodd" d="M201.364 86.0147C213.493 86.0147 225.35 89.6113 235.434 96.3497C245.519 103.088 253.379 112.666 258.021 123.871C262.662 135.077 263.877 147.407 261.511 159.303C259.144 171.199 253.304 182.126 244.727 190.702C236.151 199.279 225.224 205.119 213.328 207.486C201.432 209.852 189.102 208.637 177.896 203.996C166.691 199.354 157.113 191.494 150.375 181.41C143.636 171.325 140.04 159.468 140.04 147.339C140.037 139.285 141.622 131.31 144.703 123.869C147.784 116.428 152.301 109.666 157.996 103.971C163.691 98.2763 170.452 93.7593 177.894 90.6782C185.335 87.5971 193.31 86.0124 201.364 86.0147V86.0147ZM219.361 110.487H183.367C182.371 110.488 181.392 110.751 180.53 111.25C179.668 111.749 178.952 112.466 178.456 113.33L160.459 144.497C159.931 145.416 159.669 146.465 159.702 147.524C159.721 148.455 159.982 149.365 160.459 150.165L163.234 154.975L220.034 122.211L232.918 144.497C233.414 145.359 233.675 146.336 233.675 147.331C233.675 148.326 233.414 149.303 232.918 150.165L219.597 173.242C219.095 174.1 218.378 174.812 217.517 175.308C216.655 175.803 215.679 176.065 214.685 176.067H188.043C187.048 176.07 186.07 175.811 185.208 175.315C184.345 174.818 183.629 174.103 183.132 173.242L178.624 165.454L201.364 152.217V142.798L167.54 162.46L171.627 169.508L178.456 181.282C178.95 182.147 179.665 182.867 180.528 183.366C181.39 183.866 182.37 184.127 183.367 184.124H219.361C220.357 184.122 221.335 183.858 222.197 183.359C223.059 182.861 223.775 182.144 224.273 181.282L242.27 150.115C242.766 149.252 243.027 148.275 243.027 147.28C243.027 146.286 242.766 145.309 242.27 144.446L224.273 113.33C223.772 112.47 223.056 111.755 222.194 111.256C221.333 110.758 220.357 110.493 219.361 110.487V110.487ZM183.165 121.336C184.847 118.342 186.967 118.51 189.153 118.51H209.808L172.434 140.157L183.165 121.336Z" fill="#1F2937"/>
<rect x="41.8325" y="236.562" width="38" height="36" rx="3.5" fill="#3B82F6" stroke="#D1D5DB"/>
<path d="M92.2925 253.062V248.55H91.4165V247.134H92.2925V246.558C92.2925 245.19 93.2885 244.494 94.6325 244.494C95.2325 244.494 95.7485 244.626 95.9045 244.686V246.03C95.7485 245.982 95.4245 245.886 95.0045 245.886C94.4045 245.886 94.1165 246.162 94.1165 246.69V247.134H96.0005V248.55H94.1165V253.062H92.2925ZM102.252 249.93V250.446H98.04C98.124 251.418 98.616 251.838 99.432 251.838C100.14 251.838 100.596 251.586 100.644 251.01H102.252C102.216 252.366 101.088 253.158 99.396 253.158C97.428 253.158 96.204 252.042 96.204 250.158C96.204 248.202 97.428 247.038 99.432 247.038C101.088 247.038 102.252 247.986 102.252 249.93ZM100.644 249.474V249.378C100.644 248.706 100.188 248.358 99.432 248.358C98.664 248.358 98.232 248.694 98.088 249.474H100.644ZM103.074 253.062V244.746H104.898V253.062H103.074ZM109.703 253.158C108.623 253.158 107.855 252.702 107.639 251.946H107.627C107.639 252.294 107.663 252.774 107.687 253.062H105.863V244.746H107.687V247.23C107.687 247.506 107.663 247.998 107.651 248.286H107.675C107.903 247.506 108.659 247.038 109.715 247.038C111.407 247.038 112.403 248.13 112.403 249.978C112.403 251.982 111.395 253.158 109.703 253.158ZM109.235 251.766C110.075 251.766 110.579 251.13 110.579 250.038C110.579 249.03 110.075 248.43 109.223 248.43C108.263 248.43 107.687 249.042 107.687 250.062V250.338C107.687 251.238 108.263 251.766 109.235 251.766ZM115.174 253.158C113.794 253.158 112.834 252.558 112.834 251.358C112.834 250.386 113.53 249.678 115.102 249.678H117.034V249.282C117.034 248.562 116.626 248.274 115.786 248.274C115.102 248.274 114.706 248.562 114.706 249.042C114.706 249.078 114.706 249.174 114.718 249.294H113.038C113.026 249.198 113.014 249.066 113.014 248.946C113.014 247.746 114.07 247.038 115.87 247.038C117.754 247.038 118.858 247.878 118.858 249.462V253.062H117.034C117.07 252.762 117.118 252.222 117.118 251.862H117.106C116.926 252.702 116.254 253.158 115.174 253.158ZM115.534 251.922C116.482 251.922 117.034 251.502 117.034 250.782V250.662H115.27C114.778 250.662 114.478 250.89 114.478 251.226C114.478 251.682 114.874 251.922 115.534 251.922ZM119.714 253.062V247.134H121.538L121.466 248.826H121.49C121.742 247.698 122.378 247.038 123.542 247.038C124.754 247.038 125.462 247.818 125.462 249.354C125.462 249.69 125.426 250.218 125.402 250.53H123.746C123.77 250.242 123.782 249.942 123.782 249.762C123.782 248.898 123.434 248.55 122.858 248.55C122.078 248.55 121.538 249.186 121.538 250.506V253.062H119.714ZM129.254 253.158C127.406 253.158 126.746 252.342 126.746 251.022V248.55H125.87V247.134H126.578C126.854 247.134 126.95 246.978 126.986 246.618L127.07 245.79H128.57V247.134H130.466V248.55H128.57V250.926C128.57 251.538 128.858 251.73 129.578 251.73C129.83 251.73 130.202 251.694 130.406 251.646V253.026C130.25 253.062 129.746 253.158 129.254 253.158ZM136.675 253.158C134.959 253.158 133.891 251.91 133.891 250.05C133.891 248.238 135.019 247.038 136.747 247.038C137.707 247.038 138.331 247.398 138.595 248.01H138.607V244.746H140.431V253.062H138.607C138.619 252.942 138.643 252.426 138.679 251.79H138.655C138.427 252.63 137.755 253.158 136.675 253.158ZM137.095 251.766C138.007 251.766 138.607 251.118 138.607 250.146V249.858C138.607 249.006 138.007 248.43 137.119 248.43C136.267 248.43 135.703 249.078 135.703 250.062C135.703 251.07 136.255 251.766 137.095 251.766ZM147.311 249.93V250.446H143.099C143.183 251.418 143.675 251.838 144.491 251.838C145.199 251.838 145.655 251.586 145.703 251.01H147.311C147.275 252.366 146.147 253.158 144.455 253.158C142.487 253.158 141.263 252.042 141.263 250.158C141.263 248.202 142.487 247.038 144.491 247.038C146.147 247.038 147.311 247.986 147.311 249.93ZM145.703 249.474V249.378C145.703 248.706 145.247 248.358 144.491 248.358C143.723 248.358 143.291 248.694 143.147 249.474H145.703ZM150.965 253.158C148.877 253.158 148.001 252.27 148.001 251.07H149.633C149.633 251.622 149.909 251.982 150.953 251.982C151.901 251.982 152.237 251.706 152.237 251.274C152.237 251.058 152.129 250.89 151.817 250.818C151.505 250.746 151.025 250.698 150.437 250.65C149.585 250.578 148.925 250.446 148.565 250.194C148.229 249.954 148.001 249.522 148.001 249.03C148.001 247.746 149.321 247.038 150.965 247.038C152.909 247.038 153.797 247.782 153.797 249.162H152.189C152.177 248.538 151.889 248.214 150.989 248.214C150.173 248.214 149.813 248.49 149.813 248.898C149.813 249.15 149.909 249.342 150.245 249.426C150.545 249.498 151.073 249.546 151.709 249.606C152.441 249.678 152.957 249.75 153.401 250.002C153.785 250.218 154.061 250.662 154.061 251.178C154.061 252.426 152.993 253.158 150.965 253.158ZM154.919 246.51V245.058H156.743V246.51H154.919ZM154.919 253.062V247.134H156.743V253.062H154.919ZM162.002 251.982C163.346 251.982 164.138 252.57 164.138 253.554C164.138 254.91 162.926 255.63 160.874 255.63C158.786 255.63 157.55 255.054 157.55 254.07C157.55 253.446 157.958 253.062 158.618 252.99V252.978C158.258 252.75 158.066 252.426 158.066 252.006C158.066 251.442 158.354 251.094 158.798 250.89V250.878C158.174 250.518 157.826 249.93 157.826 249.162C157.826 247.83 158.858 247.038 160.598 247.038C161.294 247.038 161.87 247.158 162.314 247.398L162.326 247.374C162.086 247.158 161.978 246.918 161.978 246.702C161.978 246.21 162.47 245.922 163.226 245.922C163.55 245.922 163.718 245.946 163.886 245.982V247.134C163.778 247.11 163.658 247.098 163.526 247.098C163.142 247.098 162.962 247.266 162.962 247.542C162.962 247.686 163.01 247.866 163.094 248.082C163.286 248.382 163.382 248.742 163.382 249.162C163.382 250.494 162.35 251.274 160.598 251.274C160.238 251.274 159.914 251.238 159.614 251.178C159.566 251.25 159.506 251.394 159.506 251.562C159.506 251.826 159.722 251.982 160.082 251.982H162.002ZM160.598 248.19C159.938 248.19 159.542 248.55 159.542 249.162C159.542 249.762 159.938 250.122 160.598 250.122C161.27 250.122 161.666 249.762 161.666 249.162C161.666 248.55 161.27 248.19 160.598 248.19ZM160.85 254.526C161.774 254.526 162.314 254.274 162.314 253.806C162.314 253.482 162.074 253.302 161.546 253.302H160.142C159.65 253.302 159.362 253.506 159.362 253.842C159.362 254.286 159.914 254.526 160.85 254.526ZM164.831 253.062V247.134H166.655L166.583 248.706H166.607C166.907 247.578 167.603 247.038 168.947 247.038C170.375 247.038 171.299 247.818 171.299 249.354V253.062H169.475V249.762C169.475 248.922 168.995 248.55 168.191 248.55C167.231 248.55 166.655 249.114 166.655 250.242V253.062H164.831Z" fill="#4B5563"/>
<path d="M95.6425 265.662C93.2025 265.662 91.5925 264.412 91.5925 261.942C91.5925 259.172 93.5425 257.362 95.9125 257.362C98.4825 257.362 99.7425 258.582 99.7425 260.522C99.7425 262.542 98.7525 263.862 97.5025 263.862C96.6725 263.862 96.3225 263.372 96.4325 262.562H96.4125C96.2125 263.342 95.7525 263.862 94.8825 263.862C93.8125 263.862 93.3125 263.052 93.3125 262.102C93.3125 260.672 94.2425 259.162 95.5825 259.162C96.2325 259.162 96.6525 259.412 96.8525 259.832H96.8625L97.0425 259.242H98.0325L97.5325 261.872C97.4725 262.252 97.4225 262.532 97.4225 262.762C97.4225 263.092 97.5525 263.272 97.8625 263.272C98.5425 263.272 99.1825 262.002 99.1825 260.522C99.1825 258.762 98.1025 257.862 95.9025 257.862C93.8825 257.862 92.1525 259.452 92.1525 261.942C92.1525 264.032 93.4325 265.152 95.6525 265.152C96.7025 265.162 97.8025 264.962 98.3625 264.742L98.3825 265.242C97.7225 265.502 96.6825 265.662 95.6425 265.662ZM95.1825 263.022C95.8225 263.022 96.3425 262.352 96.5425 261.352L96.6925 260.512C96.5825 260.222 96.2325 260.002 95.7725 260.002C94.8825 260.002 94.3825 261.192 94.3825 262.042C94.3825 262.642 94.6725 263.022 95.1825 263.022ZM100.875 264.062V260.032H100.085V259.122H100.875V258.632C100.875 257.532 101.605 256.932 102.675 256.932C103.115 256.932 103.475 257.012 103.635 257.072V257.962C103.475 257.912 103.215 257.842 102.875 257.842C102.305 257.842 101.995 258.142 101.995 258.682V259.122H103.715V260.032H101.995V264.062H100.875ZM108.828 261.412V261.812H105.128C105.188 262.762 105.718 263.272 106.558 263.272C107.278 263.272 107.768 262.952 107.818 262.372H108.828C108.788 263.472 107.888 264.142 106.538 264.142C104.978 264.142 103.998 263.182 103.998 261.632C103.998 260.032 104.978 259.042 106.538 259.042C107.938 259.042 108.828 259.872 108.828 261.412ZM107.818 261.132V261.062C107.818 260.322 107.358 259.912 106.548 259.912C105.778 259.912 105.288 260.312 105.158 261.132H107.818ZM109.833 264.062V257.132H110.953V264.062H109.833ZM115.137 264.142C114.117 264.142 113.437 263.702 113.237 263.012H113.227C113.227 263.362 113.247 263.812 113.267 264.062H112.147V257.132H113.267V259.372C113.267 259.582 113.257 259.982 113.247 260.222H113.257C113.467 259.502 114.147 259.042 115.127 259.042C116.547 259.042 117.397 259.982 117.397 261.502C117.397 263.132 116.527 264.142 115.137 264.142ZM114.847 263.222C115.727 263.222 116.277 262.582 116.277 261.532C116.277 260.562 115.747 259.962 114.867 259.962C113.887 259.962 113.267 260.582 113.267 261.582V261.832C113.267 262.692 113.877 263.222 114.847 263.222ZM119.853 264.142C118.723 264.142 117.973 263.602 117.973 262.642C117.973 261.892 118.503 261.302 119.823 261.302H121.653V260.952C121.653 260.212 121.223 259.882 120.353 259.882C119.593 259.882 119.163 260.172 119.163 260.722C119.163 260.752 119.163 260.832 119.173 260.912H118.143C118.133 260.842 118.123 260.712 118.123 260.622C118.123 259.632 118.983 259.042 120.393 259.042C121.893 259.042 122.773 259.752 122.773 261.052V264.062H121.653C121.673 263.822 121.703 263.372 121.703 262.972H121.693C121.533 263.702 120.943 264.142 119.853 264.142ZM120.083 263.302C121.053 263.302 121.653 262.832 121.653 262.072V261.982H119.923C119.283 261.982 119.003 262.202 119.003 262.592C119.003 263.042 119.403 263.302 120.083 263.302ZM123.846 264.062V259.122H124.966L124.926 260.542H124.936C125.166 259.652 125.676 259.042 126.696 259.042C127.766 259.042 128.356 259.742 128.356 260.972C128.356 261.282 128.326 261.682 128.306 261.892H127.286C127.306 261.702 127.326 261.452 127.326 261.222C127.326 260.392 127.006 260.002 126.346 260.002C125.496 260.002 124.966 260.722 124.966 261.902V264.062H123.846ZM131.514 264.122C130.164 264.122 129.634 263.392 129.634 262.302V260.032H128.854V259.122H129.484C129.674 259.122 129.744 259.022 129.774 258.742L129.824 258.002H130.754V259.122H132.454V260.032H130.754V262.242C130.754 262.882 130.994 263.202 131.674 263.202C131.954 263.202 132.274 263.152 132.414 263.112V264.002C132.264 264.052 131.924 264.122 131.514 264.122ZM133.538 264.062V262.762H134.668V264.062H133.538ZM138.155 264.142C136.725 264.142 135.825 263.102 135.825 261.562C135.825 260.072 136.755 259.042 138.225 259.042C139.155 259.042 139.735 259.412 139.935 259.992H139.945V257.132H141.065V264.062H139.945C139.965 263.772 139.975 263.342 139.995 262.862H139.975C139.785 263.642 139.165 264.142 138.155 264.142ZM138.385 263.222C139.325 263.222 139.945 262.602 139.945 261.642V261.402C139.945 260.522 139.335 259.962 138.405 259.962C137.515 259.962 136.935 260.622 136.935 261.562C136.935 262.542 137.505 263.222 138.385 263.222ZM146.895 261.412V261.812H143.195C143.255 262.762 143.785 263.272 144.625 263.272C145.345 263.272 145.835 262.952 145.885 262.372H146.895C146.855 263.472 145.955 264.142 144.605 264.142C143.045 264.142 142.065 263.182 142.065 261.632C142.065 260.032 143.045 259.042 144.605 259.042C146.005 259.042 146.895 259.872 146.895 261.412ZM145.885 261.132V261.062C145.885 260.322 145.425 259.912 144.615 259.912C143.845 259.912 143.355 260.312 143.225 261.132H145.885ZM150.029 264.142C148.329 264.142 147.719 263.382 147.719 262.412H148.729C148.729 262.982 149.059 263.332 150.019 263.332C150.929 263.332 151.329 263.052 151.329 262.602C151.329 262.412 151.259 262.242 150.999 262.152C150.759 262.062 150.289 262.012 149.739 261.962C148.969 261.892 148.449 261.792 148.149 261.572C147.879 261.372 147.719 261.012 147.719 260.632C147.719 259.642 148.679 259.042 150.019 259.042C151.559 259.042 152.239 259.682 152.239 260.802H151.229C151.219 260.162 150.869 259.852 150.049 259.852C149.269 259.852 148.829 260.132 148.829 260.552C148.829 260.762 148.879 260.962 149.169 261.062C149.409 261.142 149.879 261.192 150.479 261.252C151.179 261.322 151.579 261.392 151.929 261.592C152.259 261.772 152.449 262.152 152.449 262.552C152.449 263.552 151.609 264.142 150.029 264.142ZM153.446 258.542V257.442H154.596V258.542H153.446ZM153.456 264.062V259.122H154.576V264.062H153.456ZM159.18 263.282C160.24 263.282 160.85 263.742 160.85 264.532C160.85 265.572 159.88 266.192 158.25 266.192C156.58 266.192 155.58 265.682 155.58 264.792C155.58 264.292 155.95 263.922 156.54 263.892V263.882C156.26 263.692 156.11 263.422 156.11 263.072C156.11 262.652 156.3 262.362 156.57 262.232V262.212C156.08 261.912 155.81 261.422 155.81 260.802C155.81 259.722 156.65 259.042 158.01 259.042C158.57 259.042 159.03 259.152 159.39 259.362L159.4 259.352C159.25 259.192 159.16 259.002 159.16 258.792C159.16 258.392 159.54 258.142 160.13 258.142C160.37 258.142 160.51 258.162 160.63 258.192V258.982C160.55 258.952 160.44 258.932 160.3 258.932C159.97 258.932 159.81 259.072 159.81 259.342C159.81 259.482 159.86 259.652 159.92 259.842C160.11 260.102 160.21 260.432 160.21 260.802C160.21 261.892 159.37 262.562 158.01 262.562C157.69 262.562 157.4 262.522 157.14 262.452C157.08 262.522 157.02 262.662 157.02 262.832C157.02 263.112 157.22 263.282 157.58 263.282H159.18ZM158.01 259.842C157.31 259.842 156.88 260.212 156.88 260.802C156.88 261.392 157.31 261.762 158.01 261.762C158.71 261.762 159.14 261.392 159.14 260.802C159.14 260.212 158.71 259.842 158.01 259.842ZM158.24 265.402C159.29 265.402 159.73 265.102 159.73 264.662C159.73 264.332 159.48 264.152 158.95 264.152H157.61C157.05 264.152 156.69 264.322 156.69 264.702C156.69 265.172 157.29 265.402 158.24 265.402ZM161.727 264.062V259.122H162.847L162.807 260.442H162.817C163.087 259.552 163.727 259.042 164.877 259.042C166.127 259.042 166.897 259.752 166.897 260.972V264.062H165.777V261.222C165.777 260.442 165.337 260.002 164.447 260.002C163.467 260.002 162.847 260.592 162.847 261.672V264.062H161.727Z" fill="#4B5563"/>
<path d="M148.792 90.6793C148.792 87.5668 151.316 85.0437 154.428 85.0437H170.63C173.743 85.0437 176.266 87.5668 176.266 90.6793V106.882C176.266 109.994 173.743 112.517 170.63 112.517H154.428C151.316 112.517 148.792 109.994 148.792 106.882V90.6793Z" fill="#F47D9E"/>
<g clip-path="url(#clip0_713_909)">
<path d="M162.144 104.51L168.009 98.6426L170.523 101.157L164.658 107.024L162.144 104.51Z" stroke="white" stroke-width="2" stroke-linecap="round" stroke-linejoin="round"/>
<path d="M153.764 90.261L165.914 93.1946L167.171 99.4808L162.982 103.672L156.697 102.414L153.764 90.261ZM153.764 90.261L160.121 96.6193" stroke="white" stroke-width="2" stroke-linecap="round" stroke-linejoin="round"/>
<path d="M161.306 99.4808C162.231 99.4808 162.982 98.7303 162.982 97.8045C162.982 96.8787 162.231 96.1282 161.306 96.1282C160.38 96.1282 159.63 96.8787 159.63 97.8045C159.63 98.7303 160.38 99.4808 161.306 99.4808Z" stroke="white" stroke-width="2" stroke-linecap="round" stroke-linejoin="round"/>
</g>
<path d="M131.309 190.556C131.309 187.443 133.832 184.92 136.944 184.92H153.147C156.259 184.92 158.782 187.443 158.782 190.556V206.758C158.782 209.87 156.259 212.393 153.147 212.393H136.944C133.832 212.393 131.309 209.87 131.309 206.758V190.556Z" fill="url(#paint2_linear_713_909)"/>
<path d="M140.999 203.94L136.239 198.645L140.999 193.374H143.27L138.491 198.645L143.27 203.94H140.999Z" fill="#4B5563"/>
<path d="M146.799 193.374H149.071L153.85 198.645L149.071 203.94H146.799L151.579 198.645L146.799 193.374Z" fill="#4B5563"/>
<path d="M245.028 89.6878C245.028 86.5754 247.551 84.0522 250.663 84.0522H266.865C269.978 84.0522 272.501 86.5754 272.501 89.6878V105.89C272.501 109.003 269.978 111.526 266.865 111.526H250.663C247.551 111.526 245.028 109.003 245.028 105.89V89.6878Z" fill="#E9E86F"/>
<path d="M251.731 97.0423C252.871 96.83 253.441 96.2434 253.441 95.2824C253.441 94.8578 253.385 94.1316 253.273 93.1036C253.161 92.0086 253.106 91.2153 253.106 90.7237C253.106 89.9192 253.329 89.3046 253.776 88.88C254.234 88.4555 254.843 88.2432 255.603 88.2432H256.575V89.5672H255.888C255.452 89.5672 255.128 89.6678 254.916 89.8689C254.703 90.0588 254.597 90.3773 254.597 90.8242C254.597 91.1483 254.62 91.5505 254.664 92.031C254.709 92.5002 254.737 92.8187 254.748 92.9863C254.86 94.0589 254.916 94.8411 254.916 95.3327C254.916 95.9249 254.765 96.4221 254.463 96.8244C254.173 97.2154 253.72 97.478 253.106 97.6121V97.6456C253.72 97.7797 254.173 98.0479 254.463 98.4501C254.765 98.8523 254.916 99.3496 254.916 99.9418C254.916 100.433 254.86 101.216 254.748 102.288C254.737 102.456 254.709 102.78 254.664 103.26C254.62 103.73 254.597 104.126 254.597 104.45C254.597 104.897 254.703 105.216 254.916 105.406C255.128 105.607 255.452 105.707 255.888 105.707H256.575V107.031H255.603C254.843 107.031 254.234 106.819 253.776 106.394C253.329 105.97 253.106 105.355 253.106 104.551C253.106 104.059 253.161 103.266 253.273 102.171C253.385 101.143 253.441 100.417 253.441 99.992C253.441 99.0311 252.871 98.4445 251.731 98.2322V97.0423Z" fill="#4B5563"/>
<path d="M265.319 98.2322C264.179 98.4445 263.609 99.0311 263.609 99.992C263.609 100.417 263.665 101.143 263.777 102.171C263.889 103.266 263.945 104.059 263.945 104.551C263.945 105.355 263.716 105.97 263.258 106.394C262.811 106.819 262.207 107.031 261.447 107.031H260.475V105.707H261.163C261.598 105.707 261.922 105.607 262.135 105.406C262.347 105.216 262.453 104.897 262.453 104.45C262.453 104.126 262.431 103.73 262.386 103.26C262.341 102.78 262.313 102.456 262.302 102.288C262.19 101.216 262.135 100.433 262.135 99.9418C262.135 99.3496 262.28 98.8524 262.57 98.4501C262.872 98.0479 263.33 97.7797 263.945 97.6456V97.6121C263.33 97.478 262.872 97.2154 262.57 96.8244C262.28 96.4221 262.135 95.9249 262.135 95.3327C262.135 94.8411 262.19 94.0589 262.302 92.9863C262.313 92.8187 262.341 92.5002 262.386 92.031C262.431 91.5505 262.453 91.1483 262.453 90.8242C262.453 90.3773 262.347 90.0588 262.135 89.8689C261.922 89.6678 261.598 89.5672 261.163 89.5672H260.475V88.2432H261.447C262.207 88.2432 262.811 88.4555 263.258 88.8801C263.716 89.3046 263.945 89.9192 263.945 90.7237C263.945 91.2153 263.889 92.0086 263.777 93.1036C263.665 94.1316 263.609 94.8578 263.609 95.2824C263.609 96.2434 264.179 96.83 265.319 97.0423V98.2322Z" fill="#4B5563"/>
<path d="M213.613 203.494C213.613 200.382 216.136 197.859 219.248 197.859H235.451C238.563 197.859 241.086 200.382 241.086 203.494V219.697C241.086 222.809 238.563 225.332 235.451 225.332H219.248C216.136 225.332 213.613 222.809 213.613 219.697V203.494Z" fill="#88F1DB"/>
<path d="M235.335 208.969C236.318 211.025 236.505 213.373 235.859 215.559C235.213 217.745 233.781 219.614 231.839 220.805C229.896 221.997 227.581 222.427 225.341 222.011C223.1 221.596 221.093 220.366 219.706 218.557C218.319 216.748 217.651 214.49 217.831 212.218C218.011 209.946 219.026 207.821 220.68 206.253C222.335 204.685 224.511 203.786 226.789 203.729C229.067 203.672 231.285 204.461 233.016 205.943L235.023 203.935C235.156 203.802 235.336 203.727 235.524 203.727C235.712 203.727 235.892 203.802 236.025 203.935C236.158 204.068 236.233 204.248 236.233 204.436C236.233 204.624 236.158 204.804 236.025 204.937L227.525 213.44C227.392 213.573 227.212 213.647 227.024 213.647C226.836 213.647 226.656 213.573 226.523 213.44C226.39 213.307 226.315 213.126 226.315 212.938C226.315 212.75 226.39 212.57 226.523 212.437L228.977 209.982C228.312 209.542 227.518 209.339 226.723 209.407C225.929 209.475 225.18 209.809 224.599 210.355C224.017 210.901 223.637 211.627 223.52 212.416C223.403 213.205 223.555 214.011 223.953 214.702C224.35 215.394 224.969 215.931 225.71 216.227C226.451 216.523 227.269 216.56 228.034 216.332C228.798 216.105 229.463 215.626 229.922 214.973C230.38 214.32 230.605 213.532 230.559 212.736C230.554 212.643 230.567 212.549 230.598 212.461C230.629 212.373 230.677 212.292 230.739 212.223C230.801 212.153 230.876 212.097 230.96 212.056C231.044 212.016 231.135 211.992 231.228 211.987C231.416 211.977 231.6 212.041 231.74 212.167C231.81 212.229 231.867 212.304 231.907 212.388C231.947 212.472 231.971 212.563 231.976 212.656C232.041 213.783 231.719 214.899 231.064 215.818C230.409 216.738 229.459 217.406 228.373 217.713C227.287 218.02 226.128 217.946 225.089 217.505C224.05 217.064 223.192 216.282 222.658 215.287C222.124 214.293 221.945 213.145 222.151 212.035C222.356 210.925 222.935 209.918 223.79 209.181C224.645 208.445 225.727 208.022 226.855 207.983C227.983 207.944 229.09 208.291 229.995 208.967L232.009 206.952C230.533 205.726 228.656 205.089 226.739 205.163C224.821 205.237 222.999 206.017 221.622 207.353C220.244 208.689 219.409 210.487 219.276 212.401C219.143 214.316 219.722 216.212 220.902 217.726C222.081 219.239 223.778 220.264 225.667 220.602C227.556 220.94 229.503 220.568 231.134 219.558C232.765 218.548 233.966 216.971 234.506 215.129C235.045 213.287 234.885 211.311 234.057 209.58C233.976 209.41 233.966 209.215 234.028 209.038C234.091 208.861 234.221 208.716 234.391 208.635C234.56 208.554 234.755 208.544 234.932 208.606C235.109 208.669 235.254 208.799 235.335 208.969Z" fill="#4B5563"/>
<defs>
<filter id="filter0_d_713_909" x="0.709961" y="0.264404" width="420.29" height="306.471" filterUnits="userSpaceOnUse" color-interpolation-filters="sRGB">
<feFlood flood-opacity="0" result="BackgroundImageFix"/>
<feColorMatrix in="SourceAlpha" type="matrix" values="0 0 0 0 0 0 0 0 0 0 0 0 0 0 0 0 0 0 127 0" result="hardAlpha"/>
<feOffset dx="14" dy="14"/>
<feGaussianBlur stdDeviation="2"/>
<feComposite in2="hardAlpha" operator="out"/>
<feColorMatrix type="matrix" values="0 0 0 0 0 0 0 0 0 0 0 0 0 0 0 0 0 0 0.05 0"/>
<feBlend mode="normal" in2="BackgroundImageFix" result="effect1_dropShadow_713_909"/>
<feBlend mode="normal" in="SourceGraphic" in2="effect1_dropShadow_713_909" result="shape"/>
</filter>
<linearGradient id="paint0_linear_713_909" x1="201.855" y1="0.264404" x2="201.855" y2="288.736" gradientUnits="userSpaceOnUse">
<stop stop-color="#E5E7EB"/>
<stop offset="1" stop-color="white" stop-opacity="0"/>
</linearGradient>
<linearGradient id="paint1_linear_713_909" x1="201.834" y1="0.264415" x2="476.432" y2="208.22" gradientUnits="userSpaceOnUse">
<stop stop-color="white" stop-opacity="0.17"/>
<stop offset="1" stop-opacity="0"/>
</linearGradient>
<linearGradient id="paint2_linear_713_909" x1="131.309" y1="201.328" x2="160.817" y2="201.254" gradientUnits="userSpaceOnUse">
<stop stop-color="#90D6D9"/>
<stop offset="0.255208" stop-color="#D1FCD9"/>
<stop offset="0.692708" stop-color="#F4DECA"/>
<stop offset="1" stop-color="#FEB7C6"/>
</linearGradient>
<clipPath id="clip0_713_909">
<rect width="20.1105" height="20.116" fill="white" transform="translate(152.089 88.5847)"/>
</clipPath>
</defs>
</svg>
