<svg width="154" height="38" viewBox="0 0 154 38" fill="none" xmlns="http://www.w3.org/2000/svg">
<path fill-rule="evenodd" clip-rule="evenodd" d="M18.101 0.898926C21.681 0.898926 25.1807 1.96053 28.1574 3.9495C31.1341 5.93846 33.4541 8.76545 34.8242 12.073C36.1942 15.3805 36.5526 19.02 35.8542 22.5313C35.1558 26.0425 33.4318 29.2678 30.9003 31.7993C28.3689 34.3307 25.1436 36.0547 21.6323 36.7531C18.1211 37.4516 14.4816 37.0931 11.1741 35.7231C7.86653 34.3531 5.03953 32.033 3.05057 29.0563C1.06161 26.0796 6.81268e-07 22.58 6.81268e-07 18.9999C-0.000651601 16.6227 0.4671 14.2686 1.37653 12.0722C2.28596 9.8758 3.61924 7.8801 5.30021 6.19913C6.98117 4.51817 8.97687 3.18488 11.1733 2.27545C13.3697 1.36603 15.7238 0.898274 18.101 0.898926ZM23.4131 8.12245H12.7889C12.4948 8.12257 12.206 8.20019 11.9515 8.34749C11.697 8.49479 11.4858 8.70656 11.3392 8.96147L6.02705 18.1609C5.87117 18.4323 5.79382 18.7417 5.80364 19.0545C5.80944 19.3293 5.88642 19.5979 6.02705 19.834L6.84621 21.2539L23.6117 11.5828L27.4146 18.1609C27.561 18.4154 27.638 18.7039 27.638 18.9974C27.638 19.291 27.561 19.5795 27.4146 19.834L23.4827 26.6454C23.3347 26.8988 23.123 27.109 22.8688 27.2553C22.6145 27.4016 22.3264 27.4789 22.033 27.4795H14.169C13.8754 27.4804 13.5867 27.4037 13.3321 27.2573C13.0776 27.1108 12.8662 26.8998 12.7194 26.6454L11.3888 24.3468L18.101 20.4397V17.6595L8.11716 23.4631L9.32356 25.5433L11.3392 29.0185C11.485 29.2741 11.696 29.4865 11.9507 29.6339C12.2054 29.7813 12.4946 29.8585 12.7889 29.8576H23.4131C23.7071 29.8569 23.9957 29.7791 24.2502 29.6319C24.5046 29.4846 24.7158 29.2731 24.8628 29.0185L30.175 19.8191C30.3213 19.5646 30.3983 19.2761 30.3983 18.9826C30.3983 18.689 30.3213 18.4005 30.175 18.146L24.8628 8.96147C24.7151 8.70757 24.5036 8.49661 24.2494 8.34947C23.9951 8.20232 23.7069 8.12407 23.4131 8.12245ZM12.7293 11.3246C13.2257 10.4409 13.8513 10.4906 14.4967 10.4906H20.5932L9.56186 16.88L12.7293 11.3246Z" fill="#E5E7EB"/>
<path d="M46.338 28.5V18.828H44.442V16.644H46.338V15.468C46.338 12.828 48.09 11.388 50.658 11.388C51.714 11.388 52.578 11.58 52.962 11.724V13.86C52.578 13.74 51.954 13.572 51.138 13.572C49.77 13.572 49.026 14.292 49.026 15.588V16.644H53.154V18.828H49.026V28.5H46.338ZM65.1865 22.14V23.1H56.3065C56.4505 25.38 57.7225 26.604 59.7385 26.604C61.4665 26.604 62.6425 25.836 62.7625 24.444H65.1865C65.0905 27.084 62.9305 28.692 59.6905 28.692C55.9465 28.692 53.5945 26.388 53.5945 22.668C53.5945 18.828 55.9465 16.452 59.6905 16.452C63.0505 16.452 65.1865 18.444 65.1865 22.14ZM62.7625 21.468V21.3C62.7625 19.524 61.6585 18.54 59.7145 18.54C57.8665 18.54 56.6905 19.5 56.3785 21.468H62.7625ZM67.3568 28.5V11.868H70.0448V28.5H67.3568ZM72.6715 15.252V12.612H75.4315V15.252H72.6715ZM72.6955 28.5V16.644H75.3835V28.5H72.6955ZM78.033 33.252V16.644H80.721L80.673 19.404H80.697C81.177 17.604 82.761 16.452 85.113 16.452C88.497 16.452 90.633 18.78 90.633 22.356C90.633 26.196 88.473 28.692 85.065 28.692C82.713 28.692 81.177 27.636 80.673 26.1H80.649C80.673 26.892 80.721 28.116 80.721 28.596V33.252H78.033ZM84.537 26.484C86.601 26.484 87.945 24.9 87.945 22.428C87.945 20.148 86.625 18.66 84.489 18.66C82.257 18.66 80.769 20.172 80.721 22.548V23.172C80.721 25.188 82.233 26.484 84.537 26.484ZM103.953 22.14V23.1H95.073C95.217 25.38 96.489 26.604 98.505 26.604C100.233 26.604 101.409 25.836 101.529 24.444H103.953C103.857 27.084 101.697 28.692 98.457 28.692C94.713 28.692 92.361 26.388 92.361 22.668C92.361 18.828 94.713 16.452 98.457 16.452C101.817 16.452 103.953 18.444 103.953 22.14ZM101.529 21.468V21.3C101.529 19.524 100.425 18.54 98.481 18.54C96.633 18.54 95.457 19.5 95.145 21.468H101.529ZM106.123 28.5V11.868H108.811V28.5H106.123ZM122.598 22.14V23.1H113.718C113.862 25.38 115.134 26.604 117.15 26.604C118.878 26.604 120.054 25.836 120.174 24.444H122.598C122.502 27.084 120.342 28.692 117.102 28.692C113.358 28.692 111.006 26.388 111.006 22.668C111.006 18.828 113.358 16.452 117.102 16.452C120.462 16.452 122.598 18.444 122.598 22.14ZM120.174 21.468V21.3C120.174 19.524 119.07 18.54 117.126 18.54C115.278 18.54 114.102 19.5 113.79 21.468H120.174ZM124.768 15.252V12.612H127.528V15.252H124.768ZM124.792 28.5V16.644H127.48V28.5H124.792ZM135.338 28.644C132.098 28.644 130.826 26.892 130.826 24.276V18.828H128.954V16.644H130.466C130.922 16.644 131.09 16.404 131.162 15.732L131.282 13.956H133.514V16.644H137.594V18.828H133.514V24.132C133.514 25.668 134.09 26.436 135.722 26.436C136.394 26.436 137.162 26.316 137.498 26.22V28.356C137.138 28.476 136.322 28.644 135.338 28.644ZM150.261 22.14V23.1H141.381C141.525 25.38 142.797 26.604 144.813 26.604C146.541 26.604 147.717 25.836 147.837 24.444H150.261C150.165 27.084 148.005 28.692 144.765 28.692C141.021 28.692 138.669 26.388 138.669 22.668C138.669 18.828 141.021 16.452 144.765 16.452C148.125 16.452 150.261 18.444 150.261 22.14ZM147.837 21.468V21.3C147.837 19.524 146.733 18.54 144.789 18.54C142.941 18.54 141.765 19.5 141.453 21.468H147.837Z" fill="#E5E7EB"/>
</svg>
